<?xml version="1.0" standalone="no"?>
<!DOCTYPE svg PUBLIC "-//W3C//DTD SVG 20010904//EN"
 "http://www.w3.org/TR/2001/REC-SVG-20010904/DTD/svg10.dtd">
<svg version="1.0" xmlns="http://www.w3.org/2000/svg"
 width="400.000000pt" height="400.000000pt" viewBox="0 0 400.000000 400.000000"
 preserveAspectRatio="xMidYMid meet">
<metadata>
Created by potrace 1.16, written by Peter Selinger 2001-2019
</metadata>
<g transform="translate(0.000000,400.000000) scale(0.100000,-0.100000)"
fill="#000000" stroke="none">
<path d="M2152 3859 c-52 -26 -91 -75 -99 -123 -5 -33 -8 -36 -39 -36 -19 0
-64 12 -101 28 -47 18 -86 27 -125 27 -51 0 -61 -3 -89 -32 -20 -19 -34 -46
-38 -70 -6 -34 -10 -39 -44 -47 -29 -7 -61 -5 -125 7 -94 19 -131 16 -200 -16
-76 -35 -99 -107 -30 -91 54 12 63 10 66 -12 2 -14 -8 -30 -28 -48 -26 -21
-42 -26 -88 -26 -105 0 -152 -51 -152 -162 0 -61 -1 -64 -41 -98 -52 -45 -54
-79 -8 -196 27 -71 30 -88 21 -109 -6 -14 -16 -25 -21 -25 -5 0 -28 21 -51 47
-48 55 -67 52 -89 -16 -18 -56 -3 -109 42 -148 l33 -28 -29 -47 c-54 -87 -53
-166 1 -243 16 -23 32 -61 36 -85 15 -95 133 -278 225 -347 39 -31 47 -44 77
-133 54 -161 139 -313 230 -410 l45 -48 -3 -82 -3 -81 -95 -40 c-147 -60 -198
-100 -240 -186 -27 -55 -40 -72 -56 -73 -30 0 -59 -36 -90 -113 -15 -38 -38
-82 -52 -99 -29 -34 -41 -87 -31 -141 6 -37 5 -39 -40 -61 -25 -13 -71 -31
-101 -41 -73 -23 -202 -90 -228 -118 -57 -61 -142 -251 -142 -318 0 -21 35
-27 43 -6 4 9 7 9 18 0 7 -7 20 -13 28 -13 10 1 4 7 -11 16 -27 14 -38 47 -20
58 5 3 25 -6 46 -20 41 -28 106 -57 112 -51 2 2 -32 23 -75 47 -71 38 -79 45
-72 64 9 24 6 25 74 -7 29 -13 66 -27 82 -31 17 -3 -7 12 -52 33 -74 36 -95
55 -77 74 3 3 24 -8 47 -23 23 -16 56 -32 72 -35 20 -4 9 5 -37 31 -68 36 -76
46 -59 73 7 11 15 9 43 -13 19 -14 49 -29 66 -32 35 -7 34 -5 55 -114 11 -55
16 -65 35 -68 19 -3 22 0 18 20 -38 168 -58 251 -70 290 l-15 48 27 14 c15 7
59 25 99 39 40 15 95 38 122 52 l50 25 63 -34 c59 -33 399 -176 515 -217 29
-11 107 -24 175 -30 68 -6 128 -13 134 -14 16 -4 38 -118 31 -160 -5 -32 -4
-35 20 -35 l26 0 -6 73 c-3 39 -9 82 -12 94 -7 22 -5 23 54 23 l61 0 0 -95 c0
-88 1 -95 20 -95 18 0 20 7 20 64 0 89 9 126 30 126 28 0 415 118 513 157 127
50 198 99 245 171 17 27 29 26 132 -15 84 -33 301 -182 295 -203 -2 -8 -11
-67 -20 -130 -8 -63 -17 -127 -20 -142 -4 -24 -1 -28 19 -28 14 0 26 5 28 11
3 9 10 9 27 0 12 -7 25 -11 27 -8 3 2 -9 10 -26 17 -24 10 -30 19 -30 41 0 34
2 34 38 13 l27 -17 -29 25 c-25 22 -28 28 -23 68 3 25 6 51 6 59 1 11 7 9 24
-6 12 -11 29 -23 37 -27 8 -4 -2 8 -22 26 -30 27 -36 38 -31 61 7 34 14 34 57
-4 44 -38 81 -114 97 -196 10 -56 14 -63 35 -63 20 0 24 4 20 23 -3 12 -10 46
-16 76 -22 110 -77 194 -154 233 -23 12 -92 57 -155 101 -81 57 -142 91 -215
120 -55 21 -103 41 -105 43 -1 1 -9 34 -16 72 -8 39 -23 88 -34 111 -24 47
-82 107 -131 136 -20 12 -51 48 -77 91 -57 95 -139 171 -191 180 -36 6 -40 9
-46 43 -15 91 -8 124 35 176 100 121 224 332 273 465 13 35 26 49 54 63 119
57 182 111 182 155 0 8 18 51 40 95 22 45 43 105 47 132 4 36 15 60 38 85 37
43 60 115 51 164 -4 22 -25 55 -57 90 -68 75 -74 99 -43 192 22 67 23 82 14
138 -18 112 -59 206 -89 206 -13 0 -21 -9 -26 -29 -12 -56 -65 -78 -82 -35 -3
9 1 37 11 63 44 123 3 205 -122 242 -50 15 -55 20 -108 118 -56 106 -81 121
-198 121 -76 0 -98 4 -130 23 -49 27 -53 39 -25 66 17 16 26 18 36 9 10 -8 17
-8 24 -1 19 19 5 46 -36 75 -56 39 -100 44 -153 17z m117 -38 c12 -8 9 -15
-12 -41 -46 -54 -30 -93 55 -131 43 -19 68 -23 134 -21 101 3 116 -7 172 -116
49 -93 60 -104 131 -127 96 -31 123 -84 86 -172 -23 -54 -19 -100 10 -128 33
-33 78 -33 112 1 30 30 37 24 54 -51 27 -122 -56 -225 -146 -182 -39 19 -52
50 -34 83 15 30 4 44 -17 22 -37 -36 -8 -109 52 -134 39 -16 75 -11 118 19
l28 20 -11 -21 c-17 -32 -13 -113 7 -143 74 -110 82 -126 82 -155 0 -69 -38
-125 -103 -151 -69 -28 -77 -49 -77 -191 0 -115 -2 -128 -22 -149 -26 -28 -43
-30 -28 -4 17 34 11 64 -30 150 -45 93 -51 144 -20 161 17 9 20 20 19 63 -1
29 3 62 10 74 21 41 15 56 -22 50 l-34 -5 19 36 c23 45 23 76 -1 127 -25 55
-76 104 -138 131 -61 27 -82 60 -90 138 l-5 52 40 12 c57 17 92 62 92 118 0
52 -35 98 -72 92 -31 -4 -35 -28 -5 -28 61 0 77 -76 28 -129 -27 -29 -47 -36
-96 -32 -20 2 -59 38 -67 62 -4 11 -15 11 -57 1 -72 -16 -108 0 -141 62 -27
49 -38 56 -46 29 -14 -48 -50 -105 -80 -128 -40 -31 -44 -31 -44 -1 0 49 -69
106 -130 106 -41 0 -75 36 -90 91 -27 107 -63 148 -134 156 -42 5 -48 3 -81
-30 -33 -33 -49 -87 -25 -87 6 0 10 7 10 16 0 25 56 74 85 74 39 0 81 -26 94
-59 19 -44 30 -100 21 -106 -4 -2 -10 -26 -14 -53 -6 -48 -29 -92 -47 -92 -6
0 -25 11 -43 25 -48 37 -83 33 -102 -10 -7 -19 -14 -55 -14 -80 0 -42 -22 -95
-39 -95 -4 0 -18 25 -30 55 -38 91 -85 113 -170 79 -54 -21 -57 -38 -14 -65
39 -24 73 -73 73 -104 0 -11 -10 -36 -21 -55 l-21 -34 -14 27 c-16 29 -61 57
-94 57 -84 0 -120 -89 -74 -182 l14 -27 -35 15 c-50 20 -97 17 -136 -9 -43
-29 -63 -68 -54 -107 10 -44 25 -36 25 13 0 51 7 63 43 76 104 40 227 -45 227
-157 l0 -41 -52 -10 c-114 -21 -115 -21 -133 -1 -43 47 -115 3 -115 -70 l0
-42 -29 24 c-91 72 -92 174 -4 278 l27 33 -23 16 c-59 40 -81 69 -81 105 0 20
3 36 6 36 4 0 22 -13 41 -30 42 -37 75 -38 102 -4 29 37 27 89 -9 172 -16 39
-30 79 -30 89 0 10 19 35 42 55 43 36 43 37 43 105 0 37 6 79 14 91 16 30 75
55 111 47 66 -15 153 59 148 124 -2 26 -9 39 -25 46 -13 5 -23 13 -23 17 0 17
90 19 165 3 128 -26 197 -6 210 62 15 86 79 105 190 57 37 -16 83 -27 119 -29
l59 -2 13 -42 c20 -69 41 -91 122 -128 93 -42 122 -67 122 -105 0 -30 14 -38
24 -12 11 28 6 43 -24 78 -22 24 -50 41 -94 56 -89 29 -124 74 -140 175 -15
91 95 189 163 146z m-293 -671 c81 -13 109 -44 100 -112 -5 -34 -3 -48 5 -48
23 0 109 62 148 106 l38 43 23 -24 c31 -32 81 -48 130 -40 36 6 42 3 75 -29
20 -20 35 -45 35 -59 0 -53 30 -125 65 -156 20 -17 42 -31 49 -31 7 0 32 -13
54 -30 67 -48 102 -140 70 -183 -7 -9 -32 -23 -56 -31 -42 -15 -44 -15 -97 15
-52 29 -56 30 -115 19 -92 -17 -263 -70 -283 -88 -10 -9 -15 -22 -13 -29 3 -7
-7 -19 -24 -28 -22 -11 -65 -15 -184 -15 -164 0 -211 9 -201 40 3 9 -3 24 -12
32 -20 18 -148 58 -264 83 -75 16 -78 16 -117 -4 l-40 -21 -7 30 c-4 16 -27
60 -51 97 -39 59 -44 74 -42 113 3 39 7 46 31 54 35 13 76 -16 92 -64 15 -45
27 -47 60 -8 34 40 55 88 55 124 0 33 -43 109 -67 119 -15 6 -13 9 12 16 17 5
38 6 48 3 24 -7 67 -99 67 -141 0 -47 14 -48 60 -7 55 50 64 68 70 143 3 36
10 66 16 68 6 2 28 -10 49 -27 21 -16 44 -30 52 -30 25 0 71 55 78 94 6 28 10
34 20 26 7 -6 39 -15 71 -20z m-277 -697 c68 -33 135 -98 151 -148 16 -48 8
-150 -15 -194 -25 -49 -93 -120 -140 -144 -32 -18 -57 -22 -130 -22 -103 0
-158 19 -213 75 -59 58 -77 105 -77 200 0 47 3 97 8 112 9 34 58 91 101 117
75 47 225 49 315 4z m866 16 c26 -7 58 -29 91 -63 65 -64 83 -131 64 -230 -28
-148 -138 -236 -294 -236 -188 0 -341 196 -282 362 26 74 113 145 211 175 43
13 144 9 210 -8z m-482 -120 c21 -12 22 -32 1 -50 -39 -33 30 -205 119 -293
76 -76 105 -89 214 -94 83 -4 97 -2 150 22 105 48 178 143 190 247 4 32 9 47
16 40 21 -21 -93 -361 -169 -501 -119 -218 -295 -421 -414 -478 -140 -66 -264
-64 -409 6 -230 111 -411 357 -501 679 -34 120 -64 272 -56 280 3 3 8 -8 11
-23 28 -126 79 -195 180 -245 61 -30 69 -31 157 -27 71 3 103 10 136 27 65 33
129 106 172 196 48 101 57 140 36 161 -25 25 -20 53 12 60 15 3 32 7 37 9 15
6 98 -6 118 -16z m-442 -1069 c141 -111 320 -155 472 -115 75 19 124 45 190
99 l53 43 23 -176 c29 -218 26 -325 -8 -393 -39 -77 -115 -153 -223 -224 -55
-36 -114 -79 -132 -95 l-33 -28 -49 50 c-27 28 -77 71 -112 96 -34 25 -108 95
-163 155 l-101 110 6 56 c3 32 9 148 12 260 4 111 8 202 11 202 2 0 26 -18 54
-40z m-111 -158 c0 -31 -5 -41 -26 -52 -41 -23 -78 -95 -79 -156 0 -64 17 -90
101 -154 32 -25 95 -82 139 -126 44 -45 115 -107 157 -138 43 -31 94 -78 115
-106 20 -27 41 -50 45 -50 5 0 24 16 44 35 19 19 81 66 138 104 57 38 141 107
187 153 46 47 110 106 141 132 67 56 83 94 75 174 -7 68 -29 99 -90 132 -38
20 -47 30 -47 53 0 48 63 26 122 -43 40 -46 108 -171 108 -197 -1 -14 -4 -12
-15 7 -9 16 -14 19 -15 9 0 -8 7 -24 15 -35 22 -29 18 -40 -7 -18 l-22 19 17
-25 c9 -13 17 -36 17 -49 0 -24 0 -24 -16 -5 -14 16 -14 15 0 -9 17 -28 12
-62 -5 -36 -6 9 -8 2 -7 -21 2 -24 -1 -34 -9 -33 -8 2 -13 -7 -13 -21 0 -30
-17 -43 -23 -19 -3 12 -5 9 -6 -8 -1 -35 -11 -42 -27 -21 -12 15 -13 14 -14
-15 0 -40 -17 -44 -23 -5 -3 19 -4 15 -6 -15 -1 -48 -20 -69 -22 -26 -2 27 -2
27 -6 3 -8 -48 -13 -56 -23 -40 -8 12 -10 10 -10 -7 0 -25 -10 -29 -28 -11 -9
9 -12 7 -13 -13 0 -13 -3 -18 -6 -11 -7 19 -23 14 -23 -7 0 -26 -17 -36 -23
-14 -3 13 -5 10 -6 -7 -1 -20 -3 -22 -11 -10 -8 13 -10 12 -10 -2 0 -10 -4
-18 -10 -18 -5 0 -10 5 -10 11 0 6 -9 1 -20 -12 -13 -16 -19 -19 -20 -10 0 11
-4 9 -15 -5 -14 -19 -14 -19 -15 1 -1 17 -3 17 -12 -5 -10 -24 -10 -24 -18 -5
-6 17 -8 16 -11 -11 -4 -25 -2 -30 18 -32 29 -2 155 46 209 80 71 46 162 127
205 183 44 59 79 154 79 216 0 21 4 39 9 39 18 0 75 -55 103 -99 27 -43 28
-50 26 -150 l-2 -106 -6 85 -6 85 -2 -83 c-2 -92 -21 -107 -24 -19 l-1 52 -7
-50 c-5 -40 -8 -44 -10 -20 -2 17 -6 -4 -10 -45 -6 -74 -6 -75 -8 -17 -3 79
-22 73 -22 -8 0 -50 -3 -65 -15 -65 -10 0 -15 16 -18 58 l-3 57 -2 -67 c-2
-74 -21 -95 -23 -25 l-1 42 -10 -45 c-13 -62 -28 -74 -29 -24 l-1 39 -11 -42
c-14 -59 -37 -65 -39 -10 l-1 42 -6 -45 c-4 -32 -11 -46 -23 -48 -15 -3 -17 2
-12 30 4 25 3 29 -5 18 -6 -8 -11 -25 -11 -37 0 -13 -4 -23 -10 -23 -5 0 -11
10 -11 23 -1 17 -3 16 -8 -7 -3 -16 -12 -31 -20 -34 -10 -3 -12 0 -8 11 3 9 2
19 -3 22 -6 4 -10 -3 -10 -14 0 -25 -20 -38 -31 -20 -7 11 -9 11 -9 -2 0 -9
-7 -20 -16 -23 -12 -5 -14 -1 -9 17 4 16 1 14 -12 -8 l-18 -30 -3 25 -4 25
-14 -30 c-8 -17 -12 -21 -9 -10 5 20 5 20 -10 1 -8 -11 -15 -16 -15 -10 0 5
-4 4 -8 -2 -7 -10 -148 -54 -175 -54 -7 0 -19 17 -25 38 -16 52 -38 80 -52 66
-7 -7 -6 -22 5 -53 8 -24 15 -45 15 -47 0 -9 -47 -3 -58 8 -9 9 -12 9 -12 0 0
-21 -19 -13 -35 16 l-15 27 6 -28 c4 -17 2 -27 -5 -27 -7 0 -11 21 -11 55 0
48 -2 55 -20 55 -17 0 -20 -7 -20 -52 -1 -49 -2 -51 -15 -34 -8 11 -16 29 -16
40 -1 17 -2 17 -6 4 -2 -9 1 -26 7 -37 8 -17 8 -21 -4 -21 -7 0 -21 17 -29 37
-18 42 -23 30 -6 -14 8 -23 8 -26 -3 -15 -7 7 -18 27 -25 45 -6 18 -12 24 -12
15 -1 -9 3 -28 9 -42 5 -14 6 -26 1 -26 -13 0 -41 47 -42 72 -2 23 -2 23 -6 1
-2 -12 1 -32 7 -43 10 -19 9 -21 -7 -18 -10 2 -24 19 -31 38 l-13 35 5 -37 c7
-60 -18 -48 -35 16 -8 29 -8 29 -4 -7 5 -49 -11 -47 -35 6 -20 44 -28 38 -10
-8 18 -47 -22 -26 -47 25 -13 24 -23 39 -23 32 0 -7 7 -27 16 -43 15 -29 15
-30 -5 -20 -10 6 -27 31 -37 56 -19 51 -33 54 -15 4 18 -53 3 -46 -25 12 -14
30 -23 43 -20 29 3 -14 9 -36 12 -50 l5 -25 -15 25 c-9 14 -21 43 -27 65 -7
22 -14 35 -16 29 -2 -6 3 -30 10 -53 22 -64 -7 -54 -33 12 -11 28 -19 41 -17
27 3 -14 8 -33 12 -42 5 -13 2 -18 -9 -18 -11 0 -26 20 -41 53 -24 52 -34 53
-15 1 12 -31 9 -37 -12 -29 -9 4 -23 31 -33 61 -9 30 -19 54 -21 54 -6 0 8
-63 18 -83 11 -21 -5 -23 -22 -2 -7 9 -21 39 -31 68 -21 62 -25 50 -5 -17 10
-34 11 -46 3 -43 -17 5 -50 65 -58 106 l-7 36 -1 -32 c0 -17 3 -43 9 -57 14
-37 -6 -33 -26 6 -9 17 -20 52 -24 77 -7 45 -8 45 -9 9 0 -20 4 -49 9 -64 6
-15 8 -29 6 -31 -8 -8 -36 68 -45 122 -9 49 -9 49 -9 10 -1 -22 5 -58 13 -80
8 -22 15 -41 15 -43 0 -1 -8 2 -19 7 -24 13 -51 81 -51 130 0 64 77 251 104
251 8 0 16 -16 20 -43 7 -47 45 -135 76 -175 73 -95 210 -206 270 -217 21 -4
22 -2 16 33 -3 20 -6 46 -7 57 -1 11 -5 4 -9 -15 -7 -32 -8 -30 -9 20 -1 43
-4 51 -12 37 -6 -10 -7 -32 -4 -49 6 -23 4 -29 -6 -26 -9 3 -16 26 -20 59 l-6
54 -1 -48 c-3 -75 -22 -46 -24 36 l-2 72 -3 -63 c-5 -86 -26 -78 -34 14 -3 45
-6 55 -7 29 -3 -50 -18 -78 -28 -52 -6 17 1 99 12 135 5 16 5 16 -6 0 -6 -10
-14 -40 -17 -68 -7 -56 -22 -58 -24 -2 -1 36 -1 36 -8 7 -12 -53 -22 -1 -11
57 6 28 8 53 6 56 -3 2 -8 -13 -11 -34 -10 -57 -18 -74 -22 -48 -2 12 5 56 15
98 11 42 16 74 12 71 -4 -3 -16 -37 -26 -77 -14 -58 -19 -68 -26 -53 -6 14 -1
46 15 102 27 93 21 105 -8 16 -11 -32 -23 -62 -27 -67 -17 -20 -7 29 23 112
34 99 23 101 -14 3 -15 -39 -27 -59 -32 -52 -8 13 49 154 74 184 8 10 30 27
49 39 35 22 181 88 195 88 4 0 7 -17 7 -38z"/>
</g>
</svg>
